<svg width="516" height="948" viewBox="0 0 516 948" fill="none" xmlns="http://www.w3.org/2000/svg">
<g filter="url(#filter0_d_20_42)">
<path d="M100 92H416V840L258 700L100 840V92Z" fill="url(#paint0_linear_20_42)"/>
</g>
<path d="M112 123V814L258 684.668L404 814V123" stroke="url(#paint1_linear_20_42)"/>
<path d="M178.107 224.4V240.96L176.427 235.968C173.307 238.992 168.747 240.576 164.571 240.576C155.259 240.576 147.243 232.32 147.243 222.192C147.243 212.4 155.115 204.384 164.715 204.384C168.651 204.336 172.443 205.152 175.371 206.592V207.36L176.667 214.224C174.219 208.272 170.331 205.296 164.523 205.344C155.739 205.344 149.931 212.448 149.931 222.192C149.931 232.368 155.739 239.616 164.571 239.616C169.275 239.616 173.883 237.408 175.947 233.136V223.2H167.067V222.336H182.859L178.107 224.4ZM184.584 240L188.616 238.416V218.832H184.584L190.68 215.568V220.08C192.312 218.208 195 215.568 198.072 215.568C199.848 215.568 201.048 216.384 201.048 217.68C201.048 218.496 200.52 219.12 199.656 219.12C197.976 219.12 197.592 217.392 195.816 217.392C193.8 217.392 191.928 219.6 190.68 221.04V238.416L195.432 240H184.584ZM213.162 251.712H210.234L216.666 240.048L206.682 217.536L202.89 216H213.882L208.938 217.44L217.386 236.928H217.914L225.066 217.584L220.074 216H230.106L226.026 217.632L217.53 239.904L213.162 251.712ZM231.6 240L235.632 238.416V218.016H231.6L235.632 214.752V212.064C235.632 206.304 240.192 202.08 246.432 202.08C248.688 202.08 251.136 202.8 252.624 204.096C254.592 201.936 257.616 200.64 261.168 200.64C264.96 200.64 267.744 202.128 267.744 203.904C267.744 204.672 267.216 205.296 266.496 205.296C264.624 205.296 263.616 201.456 260.16 201.456C255.744 201.456 252.192 204.768 252.192 211.152V216.48H262.752L266.544 214.272V238.416L270.576 240H260.208L264.48 238.416V218.016H252.192V238.416L256.944 240H246.096L250.128 238.416V218.016H237.696V238.416L242.448 240H231.6ZM237.696 212.592V216.48H248.016L250.128 214.752V210.912C250.128 209.232 250.464 207.696 251.136 206.352C249.264 204.144 247.584 202.992 245.184 202.992C241.104 202.992 237.696 206.256 237.696 212.592ZM272.709 240L276.741 238.416V218.832H272.709L278.805 215.568V219.408C281.397 217.824 285.189 215.568 287.973 215.568C291.669 215.568 294.693 218.304 294.693 222.672V238.416L298.725 240H288.357L292.629 238.416V222.864C292.629 219.504 290.085 216.72 286.629 216.72C284.469 216.72 281.493 218.4 278.805 220.08V238.416L283.077 240H272.709ZM311.251 240.576C305.107 240.576 301.027 235.536 301.027 228.288C301.027 220.8 305.491 215.568 312.115 215.568C315.139 215.568 318.307 217.008 320.275 219.024V204.96H316.243L322.339 201.504V237.936H326.467L320.275 240.576V236.784C317.635 238.464 314.131 240.576 311.251 240.576ZM312.595 239.376C314.755 239.376 317.587 237.792 320.275 236.064V224.16C319.651 219.408 316.291 216.24 312.115 216.24C306.883 216.24 303.283 221.04 303.283 227.856C303.283 234.672 307.075 239.376 312.595 239.376ZM340.537 240.576C334.393 240.576 329.017 234.864 329.017 227.856C329.017 221.088 334.393 215.568 340.537 215.568C346.633 215.568 352.009 221.088 352.009 227.856C352.009 234.864 346.633 240.576 340.537 240.576ZM340.537 239.808C345.625 239.808 349.561 235.008 349.561 227.856C349.561 221.136 345.817 216.288 340.537 216.288C335.401 216.288 331.465 220.944 331.465 227.856C331.465 234.768 335.209 239.808 340.537 239.808ZM354.693 240L358.725 238.416V218.832H354.693L360.789 215.568V220.08C362.421 218.208 365.109 215.568 368.181 215.568C369.957 215.568 371.157 216.384 371.157 217.68C371.157 218.496 370.629 219.12 369.765 219.12C368.085 219.12 367.701 217.392 365.925 217.392C363.909 217.392 362.037 219.6 360.789 221.04V238.416L365.541 240H354.693Z" fill="#F3D692"/>
<defs>
<filter id="filter0_d_20_42" x="0" y="0" width="516" height="948" filterUnits="userSpaceOnUse" color-interpolation-filters="sRGB">
<feFlood flood-opacity="0" result="BackgroundImageFix"/>
<feColorMatrix in="SourceAlpha" type="matrix" values="0 0 0 0 0 0 0 0 0 0 0 0 0 0 0 0 0 0 127 0" result="hardAlpha"/>
<feOffset dy="8"/>
<feGaussianBlur stdDeviation="50"/>
<feComposite in2="hardAlpha" operator="out"/>
<feColorMatrix type="matrix" values="0 0 0 0 0 0 0 0 0 0 0 0 0 0 0 0 0 0 0.5 0"/>
<feBlend mode="normal" in2="BackgroundImageFix" result="effect1_dropShadow_20_42"/>
<feBlend mode="normal" in="SourceGraphic" in2="effect1_dropShadow_20_42" result="shape"/>
</filter>
<linearGradient id="paint0_linear_20_42" x1="258" y1="92" x2="258" y2="840" gradientUnits="userSpaceOnUse">
<stop/>
<stop offset="0.229167" stop-color="#40090A"/>
<stop offset="0.47552" stop-color="#770C0B"/>
<stop offset="1" stop-color="#30090B"/>
</linearGradient>
<linearGradient id="paint1_linear_20_42" x1="258" y1="123" x2="258" y2="814" gradientUnits="userSpaceOnUse">
<stop stop-color="#F3D692" stop-opacity="0"/>
<stop offset="1" stop-color="#F3D692"/>
</linearGradient>
</defs>
</svg>
