<svg width="516" height="948" viewBox="0 0 516 948" fill="none" xmlns="http://www.w3.org/2000/svg">
<g filter="url(#filter0_d_20_26)">
<path d="M100 92H416V840L258 700L100 840V92Z" fill="url(#paint0_linear_20_26)"/>
</g>
<path d="M112 123V814L258 684.668L404 814V123" stroke="url(#paint1_linear_20_26)"/>
<path d="M151.85 240L156.602 238.08V206.88L151.85 204.96H164.618L158.906 206.88V220.416H179.21V206.88L173.498 204.96H186.266L181.514 206.88V238.08L186.266 240H173.498L179.21 238.08V221.28H158.906V238.08L164.618 240H151.85ZM198.637 240.576C194.941 240.576 191.917 237.84 191.917 233.472V218.832H188.221L193.981 215.568V233.28C193.981 236.64 196.525 239.424 199.885 239.424C202.141 239.424 205.069 237.744 207.757 236.016V218.832H204.061L209.821 215.568V237.936H213.949L207.757 240.576V236.688C205.117 238.368 201.565 240.576 198.637 240.576ZM216.209 240L220.241 238.416V218.016H216.209L220.241 214.752V212.064C220.241 206.304 224.801 202.08 231.521 202.08C233.633 202.08 235.889 202.704 237.281 203.712C239.249 201.744 242.081 200.64 245.441 200.64C249.233 200.64 252.017 202.128 252.017 203.904C252.017 204.672 251.489 205.296 250.769 205.296C248.897 205.296 247.889 201.456 244.433 201.456C240.017 201.456 236.465 204.768 236.465 211.152V216.48H244.337V218.016H236.465V238.416L241.217 240H230.369L234.401 238.416V218.016H222.305V238.416L227.057 240H216.209ZM222.305 212.592V216.48H232.289L234.401 214.752V210.912C234.401 208.992 234.881 207.216 235.697 205.728C234.017 203.952 232.145 202.992 230.369 202.992C225.713 202.992 222.305 206.256 222.305 212.592ZM245.406 240L249.438 238.416V204.96H245.406L251.55 201.504V238.416L255.582 240H245.406ZM269.022 240.576C262.59 240.576 258.126 235.824 258.126 228.288C258.126 220.8 262.734 215.568 268.878 215.568C274.062 215.568 277.566 219.216 277.566 224.688V224.976H260.574C260.43 225.84 260.334 226.8 260.334 227.76C260.334 234.384 263.886 238.944 269.454 238.944C273.486 238.944 276.558 236.544 278.046 231.984C276.702 237.552 273.486 240.576 269.022 240.576ZM260.67 224.256H273.582C274.542 224.256 275.07 223.776 275.07 222.768C275.07 219.648 272.43 216.24 268.878 216.24C264.846 216.24 261.726 219.456 260.67 224.256ZM279.897 251.712L283.929 250.128V219.024H279.897L285.993 215.568V219.456C288.633 217.776 292.137 215.568 295.017 215.568C301.161 215.568 305.241 220.608 305.241 227.808C305.241 235.104 300.825 240.576 294.201 240.576C291.273 240.576 288.201 239.424 285.993 237.456V250.128L290.745 251.712H279.897ZM294.297 239.904C299.289 239.904 302.985 235.056 302.985 228.24C302.985 221.472 299.193 216.768 293.721 216.768C291.513 216.768 288.681 218.496 285.993 220.176V234.528C287.529 237.744 290.649 239.904 294.297 239.904ZM318.637 240.576C314.941 240.576 311.917 237.84 311.917 233.472V218.832H308.221L313.981 215.568V233.28C313.981 236.64 316.525 239.424 319.885 239.424C322.141 239.424 325.069 237.744 327.757 236.016V218.832H324.061L329.821 215.568V237.936H333.949L327.757 240.576V236.688C325.117 238.368 321.565 240.576 318.637 240.576ZM336.209 240L340.241 238.416V218.016H336.209L340.241 214.752V212.064C340.241 206.304 344.801 202.08 351.521 202.08C353.633 202.08 355.889 202.704 357.281 203.712C359.249 201.744 362.081 200.64 365.441 200.64C369.233 200.64 372.017 202.128 372.017 203.904C372.017 204.672 371.489 205.296 370.769 205.296C368.897 205.296 367.889 201.456 364.433 201.456C360.017 201.456 356.465 204.768 356.465 211.152V216.48H364.337V218.016H356.465V238.416L361.217 240H350.369L354.401 238.416V218.016H342.305V238.416L347.057 240H336.209ZM342.305 212.592V216.48H352.289L354.401 214.752V210.912C354.401 208.992 354.881 207.216 355.697 205.728C354.017 203.952 352.145 202.992 350.369 202.992C345.713 202.992 342.305 206.256 342.305 212.592Z" fill="#F3D692"/>
<defs>
<filter id="filter0_d_20_26" x="0" y="0" width="516" height="948" filterUnits="userSpaceOnUse" color-interpolation-filters="sRGB">
<feFlood flood-opacity="0" result="BackgroundImageFix"/>
<feColorMatrix in="SourceAlpha" type="matrix" values="0 0 0 0 0 0 0 0 0 0 0 0 0 0 0 0 0 0 127 0" result="hardAlpha"/>
<feOffset dy="8"/>
<feGaussianBlur stdDeviation="50"/>
<feComposite in2="hardAlpha" operator="out"/>
<feColorMatrix type="matrix" values="0 0 0 0 0 0 0 0 0 0 0 0 0 0 0 0 0 0 0.5 0"/>
<feBlend mode="normal" in2="BackgroundImageFix" result="effect1_dropShadow_20_26"/>
<feBlend mode="normal" in="SourceGraphic" in2="effect1_dropShadow_20_26" result="shape"/>
</filter>
<linearGradient id="paint0_linear_20_26" x1="258" y1="92" x2="258" y2="840" gradientUnits="userSpaceOnUse">
<stop/>
<stop offset="0.244792" stop-color="#674B0D"/>
<stop offset="0.47552" stop-color="#AF8528"/>
<stop offset="1" stop-color="#674B0D"/>
</linearGradient>
<linearGradient id="paint1_linear_20_26" x1="258" y1="123" x2="258" y2="814" gradientUnits="userSpaceOnUse">
<stop stop-color="#F3D692" stop-opacity="0"/>
<stop offset="1" stop-color="#F3D692"/>
</linearGradient>
</defs>
</svg>
