<svg width="516" height="948" viewBox="0 0 516 948" fill="none" xmlns="http://www.w3.org/2000/svg">
<g filter="url(#filter0_d_44_3)">
<path d="M100 92H416V840L258 700L100 840V92Z" fill="url(#paint0_linear_44_3)"/>
</g>
<path d="M112 123V814L258 684.668L404 814V123" stroke="url(#paint1_linear_44_3)"/>
<path d="M145.639 240L150.391 238.08V207.024L145.639 204.96H159.463C166.375 204.96 171.415 208.752 171.415 213.552C171.415 217.968 167.623 221.712 161.767 222.48V223.104L177.895 240H174.583L158.599 222.624H152.695V238.08L157.447 240H145.639ZM152.695 205.824V221.808H159.223C165.511 221.808 168.919 218.304 168.919 213.552C168.919 208.896 165.367 205.824 158.983 205.824H152.695ZM186.004 240.576C183.22 240.576 180.484 238.992 180.484 235.536C180.484 230.784 189.124 227.712 195.94 225.168V222.864C195.94 219.504 193.396 216.768 189.796 216.768C188.452 216.768 187.348 217.104 186.004 217.872C183.172 219.504 183.796 223.968 181.732 223.968C180.964 223.968 180.436 223.344 180.436 222.528C180.436 219.648 187.876 215.568 191.14 215.568C194.836 215.568 197.956 218.304 197.956 222.672V237.936H202.132L195.94 240.576V234.144C193.06 237.456 189.844 240.576 186.004 240.576ZM187.06 239.232C190.228 239.232 193.156 236.4 195.94 233.28V225.792C189.076 228.48 182.692 231.168 182.692 235.44C182.692 237.936 184.756 239.232 187.06 239.232ZM223.127 217.632L214.199 241.056L203.783 217.536L199.991 216H210.983L206.039 217.44L214.487 236.928H215.015L222.167 217.584L217.175 216H227.207L223.127 217.632ZM237.546 240.576C231.114 240.576 226.65 235.824 226.65 228.288C226.65 220.8 231.258 215.568 237.402 215.568C242.586 215.568 246.09 219.216 246.09 224.688V224.976H229.098C228.954 225.84 228.858 226.8 228.858 227.76C228.858 234.384 232.41 238.944 237.978 238.944C242.01 238.944 245.082 236.544 246.57 231.984C245.226 237.552 242.01 240.576 237.546 240.576ZM229.194 224.256H242.106C243.066 224.256 243.594 223.776 243.594 222.768C243.594 219.648 240.954 216.24 237.402 216.24C233.37 216.24 230.25 219.456 229.194 224.256ZM249.045 240L253.077 238.416V218.832H249.045L255.141 215.568V219.408C257.733 217.824 261.525 215.568 264.309 215.568C268.005 215.568 271.029 218.304 271.029 222.672V238.416L275.061 240H264.693L268.965 238.416V222.864C268.965 219.504 266.421 216.72 262.965 216.72C260.805 216.72 257.829 218.4 255.141 220.08V238.416L259.413 240H249.045ZM288.499 240.576C282.067 240.576 277.603 235.824 277.603 228.288C277.603 220.8 282.211 215.568 288.547 215.568C292.963 215.568 296.323 217.92 296.323 220.08C296.323 220.848 295.843 221.424 295.219 221.424C292.867 221.424 293.059 216.24 288.547 216.24C283.411 216.24 279.811 221.04 279.811 227.76C279.811 234.384 283.363 238.944 288.931 238.944C292.963 238.944 296.035 236.544 297.523 231.984C296.179 237.552 292.963 240.576 288.499 240.576ZM299.524 240L303.556 238.416V204.96H299.524L305.668 201.504V238.416L309.7 240H299.524ZM318.285 240.576C315.501 240.576 312.765 238.992 312.765 235.536C312.765 230.784 321.405 227.712 328.221 225.168V222.864C328.221 219.504 325.677 216.768 322.077 216.768C320.733 216.768 319.629 217.104 318.285 217.872C315.453 219.504 316.077 223.968 314.013 223.968C313.245 223.968 312.717 223.344 312.717 222.528C312.717 219.648 320.157 215.568 323.421 215.568C327.117 215.568 330.237 218.304 330.237 222.672V237.936H334.413L328.221 240.576V234.144C325.341 237.456 322.125 240.576 318.285 240.576ZM319.341 239.232C322.509 239.232 325.437 236.4 328.221 233.28V225.792C321.357 228.48 314.973 231.168 314.973 235.44C314.973 237.936 317.037 239.232 319.341 239.232ZM351.76 224.736L346 241.056L336.016 217.536L332.272 216H342.448L338.272 217.44L346.336 236.928H346.768L351.328 223.68L348.832 217.584L345.328 216H355.504L351.088 217.584L358.672 236.928H359.008L365.44 217.632L360.832 216H370.384L366.4 217.584L358.336 241.056L351.76 224.736Z" fill="#F3D692"/>
<defs>
<filter id="filter0_d_44_3" x="0" y="0" width="516" height="948" filterUnits="userSpaceOnUse" color-interpolation-filters="sRGB">
<feFlood flood-opacity="0" result="BackgroundImageFix"/>
<feColorMatrix in="SourceAlpha" type="matrix" values="0 0 0 0 0 0 0 0 0 0 0 0 0 0 0 0 0 0 127 0" result="hardAlpha"/>
<feOffset dy="8"/>
<feGaussianBlur stdDeviation="50"/>
<feComposite in2="hardAlpha" operator="out"/>
<feColorMatrix type="matrix" values="0 0 0 0 0 0 0 0 0 0 0 0 0 0 0 0 0 0 0.5 0"/>
<feBlend mode="normal" in2="BackgroundImageFix" result="effect1_dropShadow_44_3"/>
<feBlend mode="normal" in="SourceGraphic" in2="effect1_dropShadow_44_3" result="shape"/>
</filter>
<linearGradient id="paint0_linear_44_3" x1="258" y1="92" x2="258" y2="840" gradientUnits="userSpaceOnUse">
<stop/>
<stop offset="0.239583" stop-color="#123B50"/>
<stop offset="0.47552" stop-color="#1E6586"/>
<stop offset="1" stop-color="#123B50"/>
</linearGradient>
<linearGradient id="paint1_linear_44_3" x1="258" y1="123" x2="258" y2="814" gradientUnits="userSpaceOnUse">
<stop stop-color="#F3D692" stop-opacity="0"/>
<stop offset="1" stop-color="#F3D692"/>
</linearGradient>
</defs>
</svg>
