<svg width="516" height="948" viewBox="0 0 516 948" fill="none" xmlns="http://www.w3.org/2000/svg">
<g filter="url(#filter0_d_44_5)">
<path d="M100 92H416V840L258 700L100 840V92Z" fill="url(#paint0_linear_44_5)"/>
</g>
<path d="M112 123V814L258 684.668L404 814V123" stroke="url(#paint1_linear_44_5)"/>
<path d="M174.669 240.576C170.637 240.576 166.125 239.328 163.869 238.272V237.504L162.909 229.536C164.781 237.072 169.821 239.712 175.005 239.712C179.853 239.712 183.261 236.64 183.261 231.888C183.261 221.28 163.533 224.976 163.533 213.024C163.533 208.08 167.853 204.384 173.613 204.384C176.733 204.384 180.237 205.152 183.165 206.592V207.36L184.509 214.8C182.013 208.272 178.317 205.248 173.325 205.248C168.813 205.248 165.453 208.416 165.453 212.592C165.453 222.72 185.181 219.264 185.181 231.312C185.181 236.784 181.101 240.576 174.669 240.576ZM188.664 240L192.696 238.416V204.96H188.664L194.808 201.504V238.416L198.84 240H188.664ZM209.513 251.712H206.585L213.017 240.048L203.033 217.536L199.241 216H210.233L205.289 217.44L213.737 236.928H214.265L221.417 217.584L216.425 216H226.457L222.377 217.632L213.881 239.904L209.513 251.712ZM237.455 240.576C234.143 240.576 231.791 238.608 231.887 234.96L232.319 218.016H227.327L231.887 214.752V211.488L234.047 210.048V216.48H242.735V218.016H234.047V234.624C234.047 237.552 235.919 239.04 238.271 239.04C240.767 239.04 242.879 237.936 244.463 235.92C242.543 238.944 240.191 240.576 237.455 240.576ZM245.571 240L249.603 238.416V204.96H245.571L251.667 201.504V219.312C254.259 217.728 258.051 215.568 260.835 215.568C264.531 215.568 267.555 218.304 267.555 222.672V238.416L271.587 240H261.219L265.491 238.416V222.864C265.491 219.504 262.947 216.72 259.491 216.72C257.331 216.72 254.355 218.304 251.667 219.984V238.416L256.419 240H245.571ZM285.03 240.576C278.598 240.576 274.134 235.824 274.134 228.288C274.134 220.8 278.742 215.568 284.886 215.568C290.07 215.568 293.574 219.216 293.574 224.688V224.976H276.582C276.438 225.84 276.342 226.8 276.342 227.76C276.342 234.384 279.894 238.944 285.462 238.944C289.494 238.944 292.566 236.544 294.054 231.984C292.71 237.552 289.494 240.576 285.03 240.576ZM276.678 224.256H289.59C290.55 224.256 291.078 223.776 291.078 222.768C291.078 219.648 288.438 216.24 284.886 216.24C280.854 216.24 277.734 219.456 276.678 224.256ZM296.529 240L300.561 238.416V218.832H296.529L302.625 215.568V220.08C304.257 218.208 306.945 215.568 310.017 215.568C311.793 215.568 312.993 216.384 312.993 217.68C312.993 218.496 312.465 219.12 311.601 219.12C309.921 219.12 309.537 217.392 307.761 217.392C305.745 217.392 303.873 219.6 302.625 221.04V238.416L307.377 240H296.529ZM321.433 208.752H317.593V204.384H321.433V208.752ZM314.905 240L318.937 238.416V218.832H314.857L321.001 215.568V238.416L325.273 240H314.905ZM327.373 240L331.405 238.416V218.832H327.373L333.469 215.568V219.408C336.061 217.824 339.853 215.568 342.637 215.568C346.333 215.568 349.357 218.304 349.357 222.672V238.416L353.389 240H343.021L347.293 238.416V222.864C347.293 219.504 344.749 216.72 341.293 216.72C339.133 216.72 336.157 218.4 333.469 220.08V238.416L337.741 240H327.373Z" fill="#F3D692"/>
<defs>
<filter id="filter0_d_44_5" x="0" y="0" width="516" height="948" filterUnits="userSpaceOnUse" color-interpolation-filters="sRGB">
<feFlood flood-opacity="0" result="BackgroundImageFix"/>
<feColorMatrix in="SourceAlpha" type="matrix" values="0 0 0 0 0 0 0 0 0 0 0 0 0 0 0 0 0 0 127 0" result="hardAlpha"/>
<feOffset dy="8"/>
<feGaussianBlur stdDeviation="50"/>
<feComposite in2="hardAlpha" operator="out"/>
<feColorMatrix type="matrix" values="0 0 0 0 0 0 0 0 0 0 0 0 0 0 0 0 0 0 0.5 0"/>
<feBlend mode="normal" in2="BackgroundImageFix" result="effect1_dropShadow_44_5"/>
<feBlend mode="normal" in="SourceGraphic" in2="effect1_dropShadow_44_5" result="shape"/>
</filter>
<linearGradient id="paint0_linear_44_5" x1="258" y1="92" x2="258" y2="840" gradientUnits="userSpaceOnUse">
<stop/>
<stop offset="0.244792" stop-color="#223E09"/>
<stop offset="0.47552" stop-color="#43742E"/>
<stop offset="1" stop-color="#223E09"/>
</linearGradient>
<linearGradient id="paint1_linear_44_5" x1="258" y1="123" x2="258" y2="814" gradientUnits="userSpaceOnUse">
<stop stop-color="#F3D692" stop-opacity="0"/>
<stop offset="1" stop-color="#F3D692"/>
</linearGradient>
</defs>
</svg>
